<?xml version="1.0" encoding="UTF-8" standalone="no"?>
<!-- Created with Inkscape (http://www.inkscape.org/) -->

<svg
   xmlns:dc="http://purl.org/dc/elements/1.1/"
   xmlns:cc="http://creativecommons.org/ns#"
   xmlns:rdf="http://www.w3.org/1999/02/22-rdf-syntax-ns#"
   xmlns:svg="http://www.w3.org/2000/svg"
   xmlns="http://www.w3.org/2000/svg"
   xmlns:xlink="http://www.w3.org/1999/xlink"
   xmlns:sodipodi="http://sodipodi.sourceforge.net/DTD/sodipodi-0.dtd"
   xmlns:inkscape="http://www.inkscape.org/namespaces/inkscape"
   width="576.60632"
   height="529.0451"
   id="svg3913"
   version="1.1"
   inkscape:version="0.48.4 r9939"
   sodipodi:docname="shock.svg"
   inkscape:export-filename="/home/owner/Desktop/smiley.png"
   inkscape:export-xdpi="4.058228"
   inkscape:export-ydpi="4.058228">
  <defs
     id="defs3915">
    <linearGradient
       id="linearGradient4963">
      <stop
         style="stop-color:#505050;stop-opacity:1;"
         offset="0"
         id="stop4965" />
      <stop
         style="stop-color:#6e4d00;stop-opacity:1;"
         offset="1"
         id="stop4967" />
    </linearGradient>
    <linearGradient
       id="linearGradient4850">
      <stop
         style="stop-color:#fff608;stop-opacity:1;"
         offset="0"
         id="stop4852" />
      <stop
         id="stop4886"
         offset="0.6859166"
         style="stop-color:#fbe806;stop-opacity:1;" />
      <stop
         id="stop4858"
         offset="0.88205379"
         style="stop-color:#f7a104;stop-opacity:1;" />
      <stop
         style="stop-color:#c08300;stop-opacity:1;"
         offset="1"
         id="stop4854" />
    </linearGradient>
    <radialGradient
       inkscape:collect="always"
       xlink:href="#linearGradient4850"
       id="radialGradient4856"
       cx="313.54105"
       cy="415.24725"
       fx="313.54105"
       fy="415.24725"
       r="189.42003"
       gradientTransform="matrix(1.0966367,0.02413168,-0.02534437,1.1911143,-18.494479,-86.84644)"
       gradientUnits="userSpaceOnUse" />
  </defs>
  <sodipodi:namedview
     id="base"
     pagecolor="#ffffff"
     bordercolor="#666666"
     borderopacity="1.0"
     inkscape:pageopacity="0.0"
     inkscape:pageshadow="2"
     inkscape:zoom="0.46922603"
     inkscape:cx="135.0141"
     inkscape:cy="100.23206"
     inkscape:document-units="px"
     inkscape:current-layer="layer1"
     showgrid="true"
     inkscape:window-width="1311"
     inkscape:window-height="744"
     inkscape:window-x="49"
     inkscape:window-y="24"
     inkscape:window-maximized="1"
     fit-margin-top="0"
     fit-margin-left="0"
     fit-margin-right="0"
     fit-margin-bottom="0">
    <inkscape:grid
       type="xygrid"
       id="grid2996"
       empspacing="5"
       visible="true"
       enabled="true"
       snapvisiblegridlinesonly="true"
       originx="104.48611px"
       originy="4.9676452px" />
  </sodipodi:namedview>
  <metadata
     id="metadata3918">
    <rdf:RDF>
      <cc:Work
         rdf:about="">
        <dc:format>image/svg+xml</dc:format>
        <dc:type
           rdf:resource="http://purl.org/dc/dcmitype/StillImage" />
        <dc:title />
      </cc:Work>
    </rdf:RDF>
  </metadata>
  <g
     inkscape:label="Layer 1"
     inkscape:groupmode="layer"
     id="layer1"
     transform="translate(-69.28125,-459.4025)">
    <path
       sodipodi:type="arc"
       style="fill:url(#radialGradient4856);fill-opacity:1;fill-rule:nonzero;stroke:#000000;stroke-width:14.87771878000000036;stroke-linecap:round;stroke-linejoin:round;stroke-miterlimit:4;stroke-opacity:1;stroke-dasharray:none;stroke-dashoffset:0"
       id="path4340"
       sodipodi:cx="336.95728"
       sodipodi:cy="437.83716"
       sodipodi:rx="184.42003"
       sodipodi:ry="189.42125"
       d="m 521.3773,437.83716 c 0,104.61447 -82.56766,189.42125 -184.42002,189.42125 -101.85237,0 -184.42003,-84.80678 -184.42003,-189.42125 0,-104.61447 82.56766,-189.42125 184.42003,-189.42125 101.85236,0 184.42002,84.80678 184.42002,189.42125 z"
       transform="matrix(1.0167263,0,0,0.99978305,26.246729,348.93015)"
       inkscape:export-filename="/home/owner/Desktop/Emoticons/rect4866-0.png"
       inkscape:export-xdpi="4.0642142"
       inkscape:export-ydpi="4.0642142" />
    <path
       style="fill:none;stroke:#000000;stroke-width:13.95174979999999998;stroke-linecap:butt;stroke-linejoin:miter;stroke-miterlimit:4;stroke-opacity:1;stroke-dasharray:none"
       d="m 312.24431,849.30647 c 116.89857,0 116.89857,0 116.89857,0"
       id="path2997"
       inkscape:connector-curvature="0" />
    <path
       sodipodi:type="arc"
       style="fill:#ffffff;fill-opacity:1;fill-rule:nonzero;stroke:#000000;stroke-width:7.91415644;stroke-linecap:round;stroke-linejoin:round;stroke-miterlimit:4;stroke-opacity:1;stroke-dasharray:none;stroke-dashoffset:0"
       id="path3767"
       sodipodi:cx="170.05186"
       sodipodi:cy="138.56978"
       sodipodi:rx="45"
       sodipodi:ry="50"
       d="m 215.05186,138.56978 c 0,27.61424 -20.14718,50 -45,50 -24.85281,0 -45,-22.38576 -45,-50 0,-27.61424 20.14719,-50.000002 45,-50.000002 24.85282,0 45,22.385762 45,50.000002 z"
       transform="matrix(2.886475,0,0,2.6301469,-259.21837,297.44223)" />
    <path
       sodipodi:type="arc"
       style="fill:#000000;fill-opacity:1;fill-rule:nonzero;stroke:none"
       id="path3769"
       sodipodi:cx="105.05186"
       sodipodi:cy="68.569778"
       sodipodi:rx="20"
       sodipodi:ry="20"
       d="m 125.05186,68.569778 c 0,11.045695 -8.95431,20 -20,20 -11.045698,0 -20.000003,-8.954305 -20.000003,-20 0,-11.045695 8.954305,-20 20.000003,-20 11.04569,0 20,8.954305 20,20 z"
       transform="matrix(2.4765274,0,0,2.3737534,-30.252561,495.28801)" />
    <path
       sodipodi:type="arc"
       style="fill:#ffffff;fill-opacity:1;fill-rule:nonzero;stroke:#000000;stroke-width:7.91415644;stroke-linecap:round;stroke-linejoin:round;stroke-miterlimit:4;stroke-opacity:1;stroke-dasharray:none;stroke-dashoffset:0"
       id="path3767-4"
       sodipodi:cx="170.05186"
       sodipodi:cy="138.56978"
       sodipodi:rx="45"
       sodipodi:ry="50"
       d="m 215.05186,138.56978 c 0,27.61424 -20.14718,50 -45,50 -24.85281,0 -45,-22.38576 -45,-50 0,-27.61424 20.14719,-50.000002 45,-50.000002 24.85282,0 45,22.385762 45,50.000002 z"
       transform="matrix(2.886475,0,0,2.6301469,8.8692688,299.84198)" />
    <path
       style="fill:none;stroke:#000000;stroke-width:22.19238663;stroke-linecap:butt;stroke-linejoin:miter;stroke-miterlimit:4;stroke-opacity:1;stroke-dasharray:none"
       d="m 114.61683,506.2367 c 65.33278,-50.19068 171.63516,-36.55306 221.06259,0"
       id="path3771-2-4"
       inkscape:connector-curvature="0"
       sodipodi:nodetypes="cc" />
    <path
       style="fill:none;stroke:#000000;stroke-width:22.46410942;stroke-linecap:butt;stroke-linejoin:miter;stroke-miterlimit:4;stroke-opacity:1;stroke-dasharray:none"
       d="m 392.37043,511.03009 c 67.08705,-51.71453 174.42632,-51.71453 228.09595,0"
       id="path3771-2-4-4"
       inkscape:connector-curvature="0"
       sodipodi:nodetypes="cc" />
    <path
       sodipodi:type="arc"
       style="fill:#000000;fill-opacity:1;fill-rule:nonzero;stroke:none"
       id="path3769-7"
       sodipodi:cx="105.05186"
       sodipodi:cy="68.569778"
       sodipodi:rx="20"
       sodipodi:ry="20"
       d="m 125.05186,68.569778 c 0,11.045695 -8.95431,20 -20,20 -11.045698,0 -20.000003,-8.954305 -20.000003,-20 0,-11.045695 8.954305,-20 20.000003,-20 11.04569,0 20,8.954305 20,20 z"
       transform="matrix(2.4765274,0,0,2.3737534,243.05101,500.19986)" />
  </g>
</svg>
