<?xml version="1.0" encoding="UTF-8" standalone="no"?>
<!-- Created with Inkscape (http://www.inkscape.org/) -->

<svg
   xmlns:dc="http://purl.org/dc/elements/1.1/"
   xmlns:cc="http://creativecommons.org/ns#"
   xmlns:rdf="http://www.w3.org/1999/02/22-rdf-syntax-ns#"
   xmlns:svg="http://www.w3.org/2000/svg"
   xmlns="http://www.w3.org/2000/svg"
   xmlns:xlink="http://www.w3.org/1999/xlink"
   xmlns:sodipodi="http://sodipodi.sourceforge.net/DTD/sodipodi-0.dtd"
   xmlns:inkscape="http://www.inkscape.org/namespaces/inkscape"
   width="630.44031"
   height="403.53745"
   id="svg3913"
   version="1.1"
   inkscape:version="0.48.4 r9939"
   sodipodi:docname="whistle.svg"
   inkscape:export-filename="/home/owner/Desktop/smiley.png"
   inkscape:export-xdpi="4.058228"
   inkscape:export-ydpi="4.058228">
  <defs
     id="defs3915">
    <linearGradient
       id="linearGradient4963">
      <stop
         style="stop-color:#505050;stop-opacity:1;"
         offset="0"
         id="stop4965" />
      <stop
         style="stop-color:#6e4d00;stop-opacity:1;"
         offset="1"
         id="stop4967" />
    </linearGradient>
    <linearGradient
       id="linearGradient4850">
      <stop
         style="stop-color:#fff608;stop-opacity:1;"
         offset="0"
         id="stop4852" />
      <stop
         id="stop4886"
         offset="0.6859166"
         style="stop-color:#fbe806;stop-opacity:1;" />
      <stop
         id="stop4858"
         offset="0.88205379"
         style="stop-color:#f7a104;stop-opacity:1;" />
      <stop
         style="stop-color:#c08300;stop-opacity:1;"
         offset="1"
         id="stop4854" />
    </linearGradient>
    <radialGradient
       inkscape:collect="always"
       xlink:href="#linearGradient4850"
       id="radialGradient4856"
       cx="313.54105"
       cy="415.24725"
       fx="313.54105"
       fy="415.24725"
       r="189.42003"
       gradientTransform="matrix(1.0966367,0.02413168,-0.02534437,1.1911143,-18.494479,-86.84644)"
       gradientUnits="userSpaceOnUse" />
    <radialGradient
       inkscape:collect="always"
       xlink:href="#linearGradient4850-4"
       id="radialGradient4856-4"
       cx="313.54105"
       cy="415.24725"
       fx="313.54105"
       fy="415.24725"
       r="189.42003"
       gradientTransform="matrix(1.0966367,0.02413168,-0.02534437,1.1911143,-18.494479,-86.84644)"
       gradientUnits="userSpaceOnUse" />
    <linearGradient
       id="linearGradient4850-4">
      <stop
         style="stop-color:#fff608;stop-opacity:1;"
         offset="0"
         id="stop4852-1" />
      <stop
         id="stop4886-3"
         offset="0.6859166"
         style="stop-color:#fbe806;stop-opacity:1;" />
      <stop
         id="stop4858-1"
         offset="0.88205379"
         style="stop-color:#f7a104;stop-opacity:1;" />
      <stop
         style="stop-color:#c08300;stop-opacity:1;"
         offset="1"
         id="stop4854-7" />
    </linearGradient>
    <radialGradient
       inkscape:collect="always"
       xlink:href="#linearGradient4963-4"
       id="radialGradient4969-5"
       cx="269.31476"
       cy="531.48303"
       fx="269.31476"
       fy="531.48303"
       r="191.85889"
       gradientTransform="matrix(1.9342466,0.02304496,-0.01266123,1.0990247,-178.97375,-101.19327)"
       gradientUnits="userSpaceOnUse" />
    <linearGradient
       id="linearGradient4963-4">
      <stop
         style="stop-color:#505050;stop-opacity:1;"
         offset="0"
         id="stop4965-9" />
      <stop
         style="stop-color:#6e4d00;stop-opacity:1;"
         offset="1"
         id="stop4967-2" />
    </linearGradient>
    <radialGradient
       inkscape:collect="always"
       xlink:href="#linearGradient4850-5"
       id="radialGradient4856-6"
       cx="313.54105"
       cy="415.24725"
       fx="313.54105"
       fy="415.24725"
       r="189.42003"
       gradientTransform="matrix(1.0966367,0.02413168,-0.02534437,1.1911143,-18.494479,-86.84644)"
       gradientUnits="userSpaceOnUse" />
    <linearGradient
       id="linearGradient4850-5">
      <stop
         style="stop-color:#fff608;stop-opacity:1;"
         offset="0"
         id="stop4852-3" />
      <stop
         id="stop4886-8"
         offset="0.6859166"
         style="stop-color:#fbe806;stop-opacity:1;" />
      <stop
         id="stop4858-15"
         offset="0.88205379"
         style="stop-color:#f7a104;stop-opacity:1;" />
      <stop
         style="stop-color:#c08300;stop-opacity:1;"
         offset="1"
         id="stop4854-1" />
    </linearGradient>
    <radialGradient
       inkscape:collect="always"
       xlink:href="#linearGradient4963-8"
       id="radialGradient4969-2"
       cx="269.31476"
       cy="531.48303"
       fx="269.31476"
       fy="531.48303"
       r="191.85889"
       gradientTransform="matrix(1.9342466,0.02304496,-0.01266123,1.0990247,-178.97375,-101.19327)"
       gradientUnits="userSpaceOnUse" />
    <linearGradient
       id="linearGradient4963-8">
      <stop
         style="stop-color:#505050;stop-opacity:1;"
         offset="0"
         id="stop4965-6" />
      <stop
         style="stop-color:#6e4d00;stop-opacity:1;"
         offset="1"
         id="stop4967-3" />
    </linearGradient>
    <radialGradient
       r="189.42003"
       fy="406.08777"
       fx="289.72296"
       cy="406.08777"
       cx="289.72296"
       gradientTransform="matrix(1.2914008,-0.00121085,6.9920898e-8,1.3343452,-85.214173,-137.66841)"
       gradientUnits="userSpaceOnUse"
       id="radialGradient3093"
       xlink:href="#linearGradient4850-5"
       inkscape:collect="always" />
    <radialGradient
       r="189.42003"
       fy="415.24725"
       fx="313.54105"
       cy="415.24725"
       cx="313.54105"
       gradientTransform="matrix(1.0966367,0.02413168,-0.02534437,1.1911143,-18.494479,-86.84644)"
       gradientUnits="userSpaceOnUse"
       id="radialGradient3093-7"
       xlink:href="#linearGradient4850-5-6"
       inkscape:collect="always" />
    <linearGradient
       id="linearGradient4850-5-6">
      <stop
         style="stop-color:#fff608;stop-opacity:1;"
         offset="0"
         id="stop4852-3-5" />
      <stop
         id="stop4886-8-3"
         offset="0.6859166"
         style="stop-color:#fbe806;stop-opacity:1;" />
      <stop
         id="stop4858-15-2"
         offset="0.88205379"
         style="stop-color:#f7a104;stop-opacity:1;" />
      <stop
         style="stop-color:#c08300;stop-opacity:1;"
         offset="1"
         id="stop4854-1-1" />
    </linearGradient>
  </defs>
  <sodipodi:namedview
     id="base"
     pagecolor="#ffffff"
     bordercolor="#666666"
     borderopacity="1.0"
     inkscape:pageopacity="0.0"
     inkscape:pageshadow="2"
     inkscape:zoom="0.62906598"
     inkscape:cx="-14.653381"
     inkscape:cy="405.06944"
     inkscape:document-units="px"
     inkscape:current-layer="layer1"
     showgrid="true"
     inkscape:window-width="1311"
     inkscape:window-height="744"
     inkscape:window-x="49"
     inkscape:window-y="24"
     inkscape:window-maximized="1"
     fit-margin-top="0"
     fit-margin-left="0"
     fit-margin-right="0"
     fit-margin-bottom="0">
    <inkscape:grid
       type="xygrid"
       id="grid2996"
       empspacing="5"
       visible="true"
       enabled="true"
       snapvisiblegridlinesonly="true"
       originx="5.0518546px"
       originy="4.9676604px" />
  </sodipodi:namedview>
  <metadata
     id="metadata3918">
    <rdf:RDF>
      <cc:Work
         rdf:about="">
        <dc:format>image/svg+xml</dc:format>
        <dc:type
           rdf:resource="http://purl.org/dc/dcmitype/StillImage" />
        <dc:title />
      </cc:Work>
    </rdf:RDF>
  </metadata>
  <g
     inkscape:label="Layer 1"
     inkscape:groupmode="layer"
     id="layer1"
     transform="translate(-168.7155,-584.91019)">
    <path
       sodipodi:type="arc"
       style="fill:url(#radialGradient4856);fill-opacity:1;fill-rule:nonzero;stroke:#000000;stroke-width:14.87771878;stroke-linecap:round;stroke-linejoin:round;stroke-miterlimit:4;stroke-opacity:1;stroke-dasharray:none;stroke-dashoffset:0"
       id="path4340"
       sodipodi:cx="336.95728"
       sodipodi:cy="437.83716"
       sodipodi:rx="184.42003"
       sodipodi:ry="189.42125"
       d="m 521.3773,437.83716 c 0,104.61447 -82.56766,189.42125 -184.42002,189.42125 -101.85237,0 -184.42003,-84.80678 -184.42003,-189.42125 0,-104.61447 82.56766,-189.42125 184.42003,-189.42125 101.85236,0 184.42002,84.80678 184.42002,189.42125 z"
       transform="matrix(1.0167263,0,0,0.99978305,26.246729,348.93015)"
       inkscape:export-filename="/home/owner/Desktop/Emoticons/rect4866-0.png"
       inkscape:export-xdpi="4.0642142"
       inkscape:export-ydpi="4.0642142" />
    <path
       sodipodi:type="arc"
       style="fill:#ffffff;fill-opacity:1;fill-rule:nonzero;stroke:#000000;stroke-width:9.32627964;stroke-linecap:round;stroke-linejoin:round;stroke-miterlimit:4;stroke-opacity:1;stroke-dasharray:none;stroke-dashoffset:0"
       id="path3767-4-8"
       sodipodi:cx="170.05186"
       sodipodi:cy="138.56978"
       sodipodi:rx="45"
       sodipodi:ry="50"
       d="m 215.05186,138.56978 c 0,27.61424 -20.14718,50 -45,50 -24.85281,0 -45,-22.38576 -45,-50 0,-27.61424 20.14719,-50.000002 45,-50.000002 24.85282,0 45,22.385762 45,50.000002 z"
       transform="matrix(1.0812223,0,0,1.0633301,113.54468,587.93197)" />
    <path
       sodipodi:type="arc"
       style="fill:#000000;fill-opacity:1;fill-rule:nonzero;stroke:none"
       id="path3769-7-2"
       sodipodi:cx="105.05186"
       sodipodi:cy="68.569778"
       sodipodi:rx="20"
       sodipodi:ry="20"
       d="m 125.05186,68.569778 c 0,11.045695 -8.95431,20 -20,20 -11.045698,0 -20.000003,-8.954305 -20.000003,-20 0,-11.045695 8.954305,-20 20.000003,-20 11.04569,0 20,8.954305 20,20 z"
       transform="matrix(0.95458078,0,0,1.0222506,223.07349,642.3279)" />
    <path
       sodipodi:type="arc"
       style="fill:#ffffff;fill-opacity:1;fill-rule:nonzero;stroke:#000000;stroke-width:9.32627964;stroke-linecap:round;stroke-linejoin:round;stroke-miterlimit:4;stroke-opacity:1;stroke-dasharray:none;stroke-dashoffset:0"
       id="path3767-4-8-5"
       sodipodi:cx="170.05186"
       sodipodi:cy="138.56978"
       sodipodi:rx="45"
       sodipodi:ry="50"
       d="m 215.05186,138.56978 c 0,27.61424 -20.14718,50 -45,50 -24.85281,0 -45,-22.38576 -45,-50 0,-27.61424 20.14719,-50.000002 45,-50.000002 24.85282,0 45,22.385762 45,50.000002 z"
       transform="matrix(1.0812223,0,0,1.0633301,246.78889,590.0845)" />
    <path
       sodipodi:type="arc"
       style="fill:#000000;fill-opacity:1;fill-rule:nonzero;stroke:none"
       id="path3769-7-2-2"
       sodipodi:cx="105.05186"
       sodipodi:cy="68.569778"
       sodipodi:rx="20"
       sodipodi:ry="20"
       d="m 125.05186,68.569778 c 0,11.045695 -8.95431,20 -20,20 -11.045698,0 -20.000003,-8.954305 -20.000003,-20 0,-11.045695 8.954305,-20 20.000003,-20 11.04569,0 20,8.954305 20,20 z"
       transform="matrix(0.95458078,0,0,1.0222506,351.75388,640.04219)" />
    <path
       sodipodi:type="arc"
       style="fill:none;stroke:#000000;stroke-width:78.84462738000000570;stroke-miterlimit:4;stroke-opacity:1;stroke-dasharray:none"
       id="path4340-1-3"
       sodipodi:cx="336.95728"
       sodipodi:cy="437.83716"
       sodipodi:rx="184.42003"
       sodipodi:ry="189.42125"
       d="m 440.20586,280.88457 c 84.39388,58.56899 106.58266,176.31861 49.56004,263.00114 -57.02262,86.68252 -171.66334,109.47303 -256.05721,50.90404 -5.75678,-3.99518 -11.28916,-8.32131 -16.57067,-12.95769 l 119.81926,-143.9949 z"
       transform="matrix(0.32704153,0,0,0.31651613,398.2598,752.486)"
       inkscape:export-filename="/home/owner/Desktop/Emoticons/rect4866-0.png"
       inkscape:export-xdpi="4.0642142"
       inkscape:export-ydpi="4.0642142"
       sodipodi:start="5.3066005"
       sodipodi:end="8.5611825" />
    <path
       sodipodi:type="arc"
       style="fill:url(#radialGradient3093);fill-opacity:1;fill-rule:nonzero;stroke:none"
       id="path4340-1"
       sodipodi:cx="336.95728"
       sodipodi:cy="437.83716"
       sodipodi:rx="184.42003"
       sodipodi:ry="189.42125"
       d="m 521.3773,437.83716 c 0,104.61447 -82.56766,189.42125 -184.42002,189.42125 -101.85237,0 -184.42003,-84.80678 -184.42003,-189.42125 0,-104.61447 82.56766,-189.42125 184.42003,-189.42125 101.85236,0 184.42002,84.80678 184.42002,189.42125 z"
       transform="matrix(0.32704153,0,0,0.31651613,389.27384,745.65744)"
       inkscape:export-filename="/home/owner/Desktop/Emoticons/rect4866-0.png"
       inkscape:export-xdpi="4.0642142"
       inkscape:export-ydpi="4.0642142" />
    <path
       sodipodi:type="arc"
       style="fill:#000000;fill-opacity:1;fill-rule:nonzero;stroke:none"
       id="path3938"
       sodipodi:cx="335.05185"
       sodipodi:cy="313.56976"
       sodipodi:rx="20"
       sodipodi:ry="15"
       d="m 355.05185,313.56976 c 0,8.28427 -8.95431,15 -20,15 -11.0457,0 -20,-6.71573 -20,-15 0,-8.28427 8.9543,-15 20,-15 11.04569,0 20,6.71573 20,15 z"
       transform="matrix(0.73359461,0,0,1.6150163,279.90137,382.83443)" />
    <g
       transform="matrix(0.97144027,-0.22117753,0.29004521,1.273916,-434.61879,324.71329)"
       style="font-size:159.24969482px;font-style:normal;font-weight:bold;line-height:125%;letter-spacing:0px;word-spacing:0px;fill:#000000;fill-opacity:1;stroke:none;font-family:Sans;-inkscape-font-specification:Sans Bold"
       id="text3940-7-9">
      <path
         d="m 936.99191,463.24015 6.76501,0 0.62207,0.54431 0,3.03259 c 1.3996,2.79942 6.5835,5.832 15.55172,9.09776 12.4413,3.62884 18.66199,9.0201 18.66208,16.1738 -9e-5,7.56858 -3.16227,13.84111 -9.48656,18.81759 l -0.31103,0 -2.33276,-2.48828 c 3.1621,-2.54004 4.7432,-5.98734 4.74328,-10.3419 -8e-5,-3.62865 -5.90973,-7.2833 -17.72897,-10.96397 -4.76926,-2.17714 -7.80184,-3.93967 -9.09776,-5.28758 l 0,82.89071 c -6e-5,7.93138 -5.80603,13.06345 -17.41794,15.39621 l -4.43224,0 c -12.54508,0 -18.81761,-4.35448 -18.81759,-13.06345 -2e-5,-6.79091 5.49492,-10.78251 16.48483,-11.97483 l 1.78845,0 c 4.97651,2e-5 9.77163,1.65887 14.38535,4.97655 l 0,-96.2652 0.62206,-0.54431"
         style="-inkscape-font-specification:Sans Bold"
         id="path3966-6"
         inkscape:connector-curvature="0" />
    </g>
    <g
       transform="matrix(1.3531149,0.33631754,-0.37665496,1.5154055,-360.91018,-247.84972)"
       style="font-size:159.24969482px;font-style:normal;font-weight:bold;line-height:125%;letter-spacing:0px;word-spacing:0px;fill:#000000;fill-opacity:1;stroke:none;font-family:Sans;-inkscape-font-specification:Sans Bold"
       id="text3940-7-91">
      <path
         d="m 936.99191,463.24015 6.76501,0 0.62207,0.54431 0,3.03259 c 1.3996,2.79942 6.5835,5.832 15.55172,9.09776 12.4413,3.62884 18.66199,9.0201 18.66208,16.1738 -9e-5,7.56858 -3.16227,13.84111 -9.48656,18.81759 l -0.31103,0 -2.33276,-2.48828 c 3.1621,-2.54004 4.7432,-5.98734 4.74328,-10.3419 -8e-5,-3.62865 -5.90973,-7.2833 -17.72897,-10.96397 -4.76926,-2.17714 -7.80184,-3.93967 -9.09776,-5.28758 l 0,82.89071 c -6e-5,7.93138 -5.80603,13.06345 -17.41794,15.39621 l -4.43224,0 c -12.54508,0 -18.81761,-4.35448 -18.81759,-13.06345 -2e-5,-6.79091 5.49492,-10.78251 16.48483,-11.97483 l 1.78845,0 c 4.97651,2e-5 9.77163,1.65887 14.38535,4.97655 l 0,-96.2652 0.62206,-0.54431"
         style="-inkscape-font-specification:Sans Bold"
         id="path3966-5"
         inkscape:connector-curvature="0" />
    </g>
    <g
       transform="matrix(0.00563412,-1.3288682,1.4196379,-0.13232151,-67.488214,2013.7182)"
       style="font-size:159.24969482px;font-style:normal;font-weight:bold;line-height:125%;letter-spacing:0px;word-spacing:0px;fill:#000000;fill-opacity:1;stroke:none;font-family:Sans;-inkscape-font-specification:Sans Bold"
       id="text3940-7-9-5">
      <path
         d="m 1003.5703,486.47668 3.4547,5.11763 -0.1563,0.83428 -2.6409,2.0263 c -1.7232,2.92928 -1.7168,8.87712 0.019,17.84355 3.1932,11.83637 1.675,20.14454 -4.55472,24.92453 -6.59111,5.05707 -13.66834,6.85608 -21.23172,5.397 l -0.15884,-0.23529 0.97563,-3.4273 c 3.82678,0.69489 7.63627,-0.41243 11.42846,-3.32198 3.15995,-2.42464 3.32469,-9.33715 0.49423,-20.73757 -0.53958,-5.06258 -0.55334,-8.53436 -0.0413,-10.41535 l -72.18496,55.38553 c -6.90703,5.29951 -14.34122,4.3365 -22.30257,-2.88905 l -2.26342,-3.35293 c -6.40642,-9.49017 -5.81754,-17.1448 1.76663,-22.96391 5.91382,-4.53753 12.196,-3.04778 18.84656,4.46925 l 0.91331,1.35294 c 2.54135,3.76467 3.54548,8.50051 3.01239,14.20752 l 83.83212,-64.32204 0.7916,0.10689"
         style="-inkscape-font-specification:Sans Bold"
         id="path3966-6-2"
         inkscape:connector-curvature="0" />
    </g>
  </g>
</svg>
